<svg width="80" height="80" viewBox="0 0 80 80" fill="none" xmlns="http://www.w3.org/2000/svg">
<g id="clock-square_svgrepo.com">
<path id="Vector" d="M6.66667 40C6.66667 24.2865 6.66667 16.4298 11.5482 11.5482C16.4298 6.66667 24.2865 6.66667 40 6.66667C55.7133 6.66667 63.5703 6.66667 68.4517 11.5482C73.3333 16.4298 73.3333 24.2865 73.3333 40C73.3333 55.7133 73.3333 63.5703 68.4517 68.4517C63.5703 73.3333 55.7133 73.3333 40 73.3333C24.2865 73.3333 16.4298 73.3333 11.5482 68.4517C6.66667 63.5703 6.66667 55.7133 6.66667 40Z" fill="#9CADCE"/>
<path id="Vector_2" fill-rule="evenodd" clip-rule="evenodd" d="M40 24.1667C41.3807 24.1667 42.5 25.286 42.5 26.6667V38.9643L50.101 46.5657C51.0773 47.542 51.0773 49.1247 50.101 50.101C49.1247 51.0773 47.542 51.0773 46.5657 50.101L38.2323 41.7677C37.7633 41.299 37.5 40.663 37.5 40V26.6667C37.5 25.286 38.6193 24.1667 40 24.1667Z" fill="white"/>
</g>
</svg>
